<?xml version="1.0" encoding="utf-8"?>
<!-- Generator: Adobe Illustrator 25.4.1, SVG Export Plug-In . SVG Version: 6.00 Build 0)  -->
<svg version="1.1" id="Layer_1" xmlns="http://www.w3.org/2000/svg" xmlns:xlink="http://www.w3.org/1999/xlink" x="0px" y="0px"
	 viewBox="0 0 1033.64 354.47" style="enable-background:new 0 0 1033.64 354.47;" xml:space="preserve">
<style type="text/css">
	.st0{fill:#FFFFFF;}
	.st1{fill:#FC2F00;}
	.st2{fill:#2969FF;}
</style>
<g>
	<g>
		<path class="st0" d="M287.13,229.7h7.12l46.41,100.36h-8.11l-12.67-27.9h-58.79l-12.67,27.9h-7.69L287.13,229.7z M316.74,295.46
			l-26.19-57.65l-26.33,57.65H316.74z"/>
		<path class="st0" d="M351.61,294.04v-0.28c0-20.36,16.23-38.01,37.01-38.01c13.67,0,22.21,6.26,29.04,13.38l-4.98,5.12
			c-6.26-6.41-13.38-11.96-24.2-11.96c-16.51,0-29.32,13.81-29.32,31.17v0.29c0,17.51,13.24,31.46,29.89,31.46
			c10.25,0,18.22-5.27,24.34-12.1l4.84,4.27c-7.4,8.4-16.23,14.38-29.61,14.38C367.7,331.76,351.61,314.4,351.61,294.04z"/>
		<path class="st0" d="M431.9,308.99v-0.28c0-15.09,12.95-23.63,31.74-23.63c10.11,0,17.08,1.28,24.06,3.13v-3.13
			c0-14.66-8.97-22.21-23.91-22.21c-8.83,0-16.09,2.42-22.78,5.84l-2.56-6.12c7.97-3.7,15.8-6.26,25.77-6.26
			c9.82,0,17.65,2.7,22.92,7.97c4.84,4.84,7.4,11.53,7.4,20.5v45.27h-6.83v-12.1c-4.98,6.98-13.95,13.81-27.76,13.81
			C446.42,331.76,431.9,324.08,431.9,308.99z M487.84,302.87v-8.26c-6.12-1.57-14.23-3.27-24.63-3.27
			c-15.37,0-23.91,6.83-23.91,16.94v0.28c0,10.53,9.96,16.65,21.07,16.65C475.17,325.21,487.84,316.1,487.84,302.87z"/>
		<path class="st0" d="M514.89,294.04v-0.28c0-23.63,17.79-38.01,35.3-38.01c14.52,0,23.91,8.26,29.89,17.37v-46.98h6.98v103.92
			h-6.98v-16.23c-6.26,9.54-15.52,17.94-29.89,17.94C532.68,331.76,514.89,317.67,514.89,294.04z M580.51,293.9v-0.28
			c0-18.65-14.52-31.17-29.61-31.17c-15.8,0-28.47,11.53-28.47,31.03v0.29c0,19.07,13.24,31.32,28.47,31.32
			C565.99,325.07,580.51,312.4,580.51,293.9z"/>
		<path class="st0" d="M608.55,293.9v-0.28c0-21.07,14.8-37.86,34.45-37.86c20.36,0,33.31,16.51,33.31,38.01
			c0,1.28,0,1.71-0.14,2.85h-60.21c1.28,18.08,14.24,28.61,28.47,28.61c11.25,0,18.93-4.98,24.91-11.39l4.84,4.27
			c-7.4,7.97-16.09,13.67-30.04,13.67C625.07,331.76,608.55,316.53,608.55,293.9z M668.77,290.34c-1-14.66-9.4-28.19-26.05-28.19
			c-14.38,0-25.48,12.1-26.76,28.19H668.77z"/>
		<path class="st0" d="M696.67,257.46h6.98v12.95c4.7-7.54,11.25-14.66,24.2-14.66c12.67,0,20.5,7.26,24.48,15.66
			c4.7-8.11,12.53-15.66,26.19-15.66c17.22,0,27.9,12.1,27.9,30.32v43.99h-6.98v-43.13c0-15.66-8.11-24.77-21.49-24.77
			c-12.24,0-22.92,9.4-22.92,25.62v42.28h-6.98V286.5c0-15.09-8.26-24.34-21.21-24.34s-23.2,11.39-23.2,26.05v41.85h-6.98V257.46z"
			/>
		<path class="st0" d="M886.14,257.46h7.69l-31.46,75.16c-6.41,15.23-13.81,20.64-24.2,20.64c-5.55,0-9.54-1-14.38-3.13l2.42-6.12
			c3.84,1.85,6.98,2.7,12.38,2.7c7.54,0,12.53-4.41,17.94-17.08l-34.88-72.17h8.11l30.18,64.91L886.14,257.46z"/>
	</g>
	<g>
		<polygon class="st1" points="80.39,9.17 40.03,9.17 0.12,169.95 40.25,169.95 65.31,69.27 105.45,69.27 120.53,9.17 		"/>
		<polygon class="st2" points="160.67,9.17 145.59,69.27 135.61,109.63 95.47,109.63 80.39,169.95 120.53,169.95 160.89,169.95 
			185.95,69.27 200.81,9.17 		"/>
	</g>
	<path class="st0" d="M417.91,18.71c0,3.33-1.11,5.77-3.55,7.98c-2.22,2-4.88,3.1-7.54,3.1s-5.32-1.11-7.54-3.1
		c-2.22-2-3.55-4.66-3.55-7.98s1.11-5.77,3.55-7.98c2.22-2,4.88-3.1,7.54-3.1s5.32,1.11,7.54,3.1
		C416.8,12.94,417.91,15.6,417.91,18.71z M241.17,8.95h66.53c18.41,0,32.82,5.32,42.13,14.19c6.65,6.87,10.42,15.3,10.42,25.72v0.44
		c0,20.85-12.86,31.71-25.5,37.26c19.07,5.77,34.37,16.85,34.37,38.81v0.44c0,27.5-23.28,43.91-58.32,43.91h-69.41L241.17,8.95
		L241.17,8.95z M304.59,80.8c21.73,0,37.03-9.98,37.03-28.83v-0.44c0-15.97-12.64-26.17-35.7-26.17h-46.79V80.8H304.59z
		 M311.02,153.54c24.39,0,39.47-10.87,39.47-28.83v-0.44c0-17.52-14.64-27.5-42.8-27.5h-48.79v56.77H311.02z M397.95,51.08h17.74
		v118.86h-17.74V51.08z M462.71,132.25V66.83h-26.83V51.3h26.83V9.17h17.74V51.3h48.79v15.52h-48.79v63.2
		c0,15.97,7.54,26.17,21.95,25.95c9.98-0.22,17.96-1.11,25.28-4.21v15.08c-6.21,3.33-17.52,5.32-29.49,5.1
		C476.68,171.5,462.71,156.42,462.71,132.25z M554.74,8.95h38.14l42.36,68.08l42.36-68.08h38.14v160.78h-35.26V64.83l-45.24,68.75
		h-0.89L589.33,65.5v104.23h-34.59V8.95z M747.01,8.95h121.3v31.49h-86.26v32.6h71.85v31.49h-71.63v33.71h87.37v31.49H747.23V8.95
		H747.01z M935.72,88.12L882.06,9.17h41.47l33.71,52.11l33.93-52.11h40.14l-53.67,78.5l55.88,82.27h-41.47l-36.15-55.22
		l-36.37,55.22H879.4L935.72,88.12z"/>
</g>
</svg>
