<svg width="21" height="20" viewBox="0 0 21 20" fill="none" xmlns="http://www.w3.org/2000/svg">
<path d="M8.54759 8.39001C7.97759 8.39001 7.52759 8.89001 7.52759 9.50001C7.52759 10.11 7.98759 10.61 8.54759 10.61C9.11759 10.61 9.56759 10.11 9.56759 9.50001C9.57759 8.89001 9.11759 8.39001 8.54759 8.39001ZM12.1976 8.39001C11.6276 8.39001 11.1776 8.89001 11.1776 9.50001C11.1776 10.11 11.6376 10.61 12.1976 10.61C12.7676 10.61 13.2176 10.11 13.2176 9.50001C13.2176 8.89001 12.7676 8.39001 12.1976 8.39001Z" fill="white"/>
<path d="M17.0577 0H3.65767C2.52767 0 1.60767 0.92 1.60767 2.06V15.58C1.60767 16.72 2.52767 17.64 3.65767 17.64H14.9977L14.4677 15.79L15.7477 16.98L16.9577 18.1L19.1077 20V2.06C19.1077 0.92 18.1877 0 17.0577 0ZM13.1977 13.06C13.1977 13.06 12.8377 12.63 12.5377 12.25C13.8477 11.88 14.3477 11.06 14.3477 11.06C13.9377 11.33 13.5477 11.52 13.1977 11.65C12.6977 11.86 12.2177 12 11.7477 12.08C10.7877 12.26 9.90767 12.21 9.15767 12.07C8.58767 11.96 8.09767 11.8 7.68767 11.64C7.45767 11.55 7.20767 11.44 6.95767 11.3C6.92767 11.28 6.89767 11.27 6.86767 11.25C6.84767 11.24 6.83767 11.23 6.82767 11.22C6.64767 11.12 6.54767 11.05 6.54767 11.05C6.54767 11.05 7.02767 11.85 8.29767 12.23C7.99767 12.61 7.62767 13.06 7.62767 13.06C5.41767 12.99 4.57767 11.54 4.57767 11.54C4.57767 8.32 6.01767 5.71 6.01767 5.71C7.45767 4.63 8.82767 4.66 8.82767 4.66L8.92767 4.78C7.12767 5.3 6.29767 6.09 6.29767 6.09C6.29767 6.09 6.51767 5.97 6.88767 5.8C7.95767 5.33 8.80767 5.2 9.15767 5.17C9.21767 5.16 9.26767 5.15 9.32767 5.15C9.93767 5.07 10.6277 5.05 11.3477 5.13C12.2977 5.24 13.3177 5.52 14.3577 6.09C14.3577 6.09 13.5677 5.34 11.8677 4.82L12.0077 4.66C12.0077 4.66 13.3777 4.63 14.8177 5.71C14.8177 5.71 16.2577 8.32 16.2577 11.54C16.2577 11.54 15.4077 12.99 13.1977 13.06Z" fill="white"/>
</svg>
