<svg width="180" height="31" viewBox="0 0 180 31" fill="none" xmlns="http://www.w3.org/2000/svg">
<path d="M13.9168 1.20312H6.92529L0 30.0076H6.96314L11.3056 11.9742H18.2593L20.88 1.20312H13.9168Z" fill="#FB2F00"/>
<path d="M27.8335 1.20703L25.2223 11.9781L23.491 19.2109H16.5373L13.9166 30.0112H20.8798H27.8808L32.2233 11.9781L34.7966 1.20703H27.8335Z" fill="#2969FF"/>
<path d="M72.7284 2.65995C72.7284 3.26175 72.5397 3.70571 72.115 4.10033C71.7281 4.46536 71.2752 4.66267 70.8128 4.66267C70.3503 4.66267 69.888 4.46536 69.5105 4.10033C69.1236 3.7353 68.8971 3.26175 68.8971 2.65995C68.8971 2.05815 69.0858 1.61419 69.5105 1.21957C69.888 0.854539 70.3503 0.657227 70.8128 0.657227C71.2752 0.657227 71.7376 0.854539 72.115 1.21957C72.5397 1.62406 72.7284 2.09761 72.7284 2.65995ZM42.1627 0.894002H53.6661C56.8463 0.894002 59.3471 1.86083 60.9513 3.45907C62.1026 4.70214 62.7537 6.23131 62.7537 8.11565V8.19457C62.7537 11.9632 60.5267 13.9265 58.3468 14.9328C61.6496 15.9786 64.2919 17.9813 64.2919 21.9473V22.0262C64.2919 26.9985 60.2624 29.968 54.204 29.968H42.2005L42.1627 0.894002ZM53.1282 13.887C56.8841 13.887 59.5358 12.0816 59.5358 8.67799V8.59906C59.5358 5.70843 57.3465 3.86356 53.3642 3.86356H45.2674V13.887H53.1282ZM54.2418 27.0379C58.46 27.0379 61.0646 25.0747 61.0646 21.8289V21.75C61.0646 18.5831 58.5355 16.7777 53.6661 16.7777H45.2297V27.0379H54.2418ZM69.2746 8.52014H72.3415V30.0075H69.2746V8.52014ZM80.476 23.1903V11.3614H75.8331V8.5596H80.476V0.933464H83.543V8.54973H91.9794V11.3516H83.543V22.776C83.543 25.6666 84.8452 27.5115 87.3365 27.472C89.0635 27.4326 90.4412 27.2747 91.7058 26.7124V29.4353C90.63 30.0371 88.6766 30.4021 86.6005 30.3528C82.8918 30.2837 80.476 27.5608 80.476 23.1903ZM96.3958 0.894002H102.992L110.315 13.2063L117.638 0.894002H124.234V29.968H118.138V11.0063L110.315 23.437H110.164L102.379 11.1247V29.968H96.3958V0.894002ZM129.642 0.894002H150.62V6.58647H135.7V12.4763H148.128V18.1687H135.738V24.2657H150.846V29.9582H129.679V0.894002H129.642ZM162.283 15.209L152.998 0.933464H160.17L166.001 10.3551L171.871 0.933464H178.817L169.531 15.1301L179.194 30.0075H172.022L165.775 20.0235L159.481 30.0075H152.535L162.283 15.209Z" fill="#FAFAFA"/>
</svg>
