<svg width="21" height="21" viewBox="0 0 21 21" fill="none" xmlns="http://www.w3.org/2000/svg">
<path fill-rule="evenodd" clip-rule="evenodd" d="M6.37891 0.147949C7.44531 0.101074 7.78516 0.0893555 10.5 0.0893555C13.2148 0.0893555 13.5547 0.101074 14.625 0.151855C15.6875 0.19873 16.4141 0.370605 17.0508 0.616699C17.707 0.870606 18.2656 1.21436 18.8203 1.76904C19.3789 2.32373 19.7188 2.88232 19.9648 3.54639C20.2109 4.1792 20.3828 4.90967 20.4297 5.97217C20.4766 7.03857 20.4883 7.37842 20.4883 10.0933C20.4883 12.8081 20.4766 13.148 20.4297 14.2144C20.3828 15.2769 20.2109 16.0034 19.9648 16.6401C19.7109 17.2964 19.3672 17.855 18.8125 18.4097C18.2578 18.9644 17.6992 19.3081 17.043 19.562C16.4102 19.8081 15.6797 19.98 14.6172 20.0269C13.5508 20.0737 13.2109 20.0854 10.4961 20.0854C7.78125 20.0854 7.44141 20.0737 6.375 20.0269C5.3125 19.98 4.58594 19.8081 3.94922 19.562C3.29297 19.3081 2.73438 18.9644 2.17969 18.4097C1.62109 17.855 1.28125 17.2964 1.02344 16.6362C0.777344 16.0034 0.605469 15.273 0.558594 14.2105C0.511719 13.144 0.5 12.8042 0.5 10.0894C0.5 7.37451 0.511719 7.03467 0.558594 5.96436C0.605469 4.90186 0.777344 4.17529 1.02344 3.53857C1.28125 2.88232 1.62109 2.32373 2.17969 1.76904C2.73438 1.21045 3.29297 0.870605 3.95313 0.612793C4.58594 0.366699 5.31641 0.194824 6.37891 0.147949ZM14.4941 10.0874C14.4941 12.2965 12.7033 14.0874 10.4941 14.0874C8.285 14.0874 6.49414 12.2965 6.49414 10.0874C6.49414 7.87826 8.285 6.0874 10.4941 6.0874C12.7033 6.0874 14.4941 7.87826 14.4941 10.0874ZM15.8398 5.94873C16.5 5.94873 17.0391 5.41358 17.0391 4.74951C17.0391 4.08936 16.5 3.55029 15.8398 3.55029C15.1797 3.55029 14.6406 4.08545 14.6406 4.74951C14.6406 5.40967 15.1758 5.94873 15.8398 5.94873Z" fill="white"/>
</svg>
