<svg width="21" height="21" viewBox="0 0 21 21" fill="none" xmlns="http://www.w3.org/2000/svg">
<g clip-path="url(#clip0_1779_1616)">
<path d="M19.0195 0.0893555H1.97656C1.16016 0.0893555 0.5 0.733887 0.5 1.53076V18.644C0.5 19.4409 1.16016 20.0894 1.97656 20.0894H19.0195C19.8359 20.0894 20.5 19.4409 20.5 18.6479V1.53076C20.5 0.733887 19.8359 0.0893555 19.0195 0.0893555ZM6.43359 17.1323H3.46484V7.58545H6.43359V17.1323ZM4.94922 6.28467C3.99609 6.28467 3.22656 5.51514 3.22656 4.56592C3.22656 3.6167 3.99609 2.84717 4.94922 2.84717C5.89844 2.84717 6.66797 3.6167 6.66797 4.56592C6.66797 5.51123 5.89844 6.28467 4.94922 6.28467ZM17.543 17.1323H14.5781V12.4917C14.5781 11.3862 14.5586 9.96045 13.0352 9.96045C11.4922 9.96045 11.2578 11.1675 11.2578 12.4136V17.1323H8.29688V7.58545H11.1406V8.89014H11.1797C11.5742 8.14014 12.543 7.34717 13.9844 7.34717C16.9883 7.34717 17.543 9.32373 17.543 11.894V17.1323Z" fill="white"/>
</g>
<defs>
<clipPath id="clip0_1779_1616">
<rect width="20" height="20" fill="white" transform="translate(0.5 0.0893555)"/>
</clipPath>
</defs>
</svg>
