<svg width="21" height="17" viewBox="0 0 21 17" fill="none" xmlns="http://www.w3.org/2000/svg">
<path d="M7.04595 16.875C14.5913 16.875 18.7194 10.6223 18.7194 5.20155C18.7194 5.02577 18.7155 4.84608 18.7077 4.6703C19.5107 4.08955 20.2037 3.37021 20.7541 2.54608C20.0063 2.87883 19.2122 3.09615 18.3991 3.19061C19.2552 2.67742 19.8963 1.87123 20.2034 0.921472C19.3979 1.3988 18.5171 1.73551 17.5987 1.91718C16.9798 1.25963 16.1616 0.824264 15.2706 0.678376C14.3795 0.532488 13.4651 0.684209 12.6689 1.11008C11.8727 1.53595 11.239 2.21225 10.8657 3.03443C10.4924 3.8566 10.4003 4.77885 10.6038 5.65858C8.97289 5.57674 7.37743 5.15309 5.9208 4.41508C4.46417 3.67708 3.17889 2.6412 2.14829 1.3746C1.62448 2.2777 1.4642 3.34637 1.70001 4.36341C1.93582 5.38045 2.55004 6.26954 3.41782 6.84999C2.76634 6.8293 2.12913 6.6539 1.55884 6.33827V6.38905C1.55825 7.33679 1.8859 8.25549 2.48608 8.98897C3.08625 9.72246 3.92192 10.2255 4.85103 10.4125C4.24753 10.5776 3.61414 10.6017 2.99985 10.4828C3.26203 11.2979 3.77213 12.0107 4.45896 12.5219C5.14579 13.0331 5.97508 13.3172 6.8311 13.3344C5.37784 14.4759 3.58263 15.0951 1.73462 15.0922C1.40689 15.0917 1.07948 15.0716 0.75415 15.032C2.63153 16.2365 4.81543 16.8762 7.04595 16.875Z" fill="white"/>
</svg>
