<svg width="21" height="21" viewBox="0 0 21 21" fill="none" xmlns="http://www.w3.org/2000/svg">
<path d="M20.3008 6.08936C20.3008 6.08936 20.1055 4.71045 19.5039 4.10498C18.7422 3.30811 17.8906 3.3042 17.5 3.25732C14.7031 3.0542 10.5039 3.0542 10.5039 3.0542H10.4961C10.4961 3.0542 6.29688 3.0542 3.5 3.25732C3.10938 3.3042 2.25781 3.30811 1.49609 4.10498C0.894531 4.71045 0.703125 6.08936 0.703125 6.08936C0.703125 6.08936 0.5 7.71045 0.5 9.32764V10.8433C0.5 12.4604 0.699219 14.0815 0.699219 14.0815C0.699219 14.0815 0.894531 15.4604 1.49219 16.0659C2.25391 16.8628 3.25391 16.8354 3.69922 16.9214C5.30078 17.0737 10.5 17.1206 10.5 17.1206C10.5 17.1206 14.7031 17.1128 17.5 16.9136C17.8906 16.8667 18.7422 16.8628 19.5039 16.0659C20.1055 15.4604 20.3008 14.0815 20.3008 14.0815C20.3008 14.0815 20.5 12.4644 20.5 10.8433V9.32764C20.5 7.71045 20.3008 6.08936 20.3008 6.08936ZM8.43359 12.6831V7.06201L13.8359 9.88232L8.43359 12.6831Z" fill="white"/>
</svg>
